<svg xmlns="http://www.w3.org/2000/svg" viewBox="0 0 960 820.9"><path fill="#8a90a8" fill-opacity=".3" d="M960 819.3a1.4 1.4 0 0 1-.8 1.2 4 4 0 0 1-1.8.4H2.6c-1.4 0-2.6-.7-2.6-1.6s1.2-1.6 2.6-1.6h954.8a4 4 0 0 1 1.8.5 1 1 0 0 1 .8 1.1M552.5 325.9l-3.2-.3-117.2-18.3a20.4 20.4 0 0 1-16.9-23.9L439.7 150a20.3 20.3 0 0 1 23-16.5l115.3 17a20.4 20.4 0 0 1 17 23.5l-22.5 134.8a20.5 20.5 0 0 1-20.1 17"/><path fill="#7c6cf0" d="M557 187.2h-1L464 170a5.9 5.9 0 1 1 2.2-11.6l91.8 17.2a5.9 5.9 0 0 1-1 11.6m-8.6 30.7h-.8l-88-12a5.9 5.9 0 1 1 1.5-11.7l88 12a5.9 5.9 0 0 1-.7 11.7M513 249.4l-.9-.1-59.5-9.6a5.9 5.9 0 1 1 1.8-11.6l59.6 9.6a5.9 5.9 0 0 1-1 11.7"/><path fill="#3d4168" d="M556.5 303.1h-1l-39.5-6.6a5.9 5.9 0 1 1 2-11.6l39.5 6.6a5.9 5.9 0 0 1-1 11.6"/><g transform="translate(177.3)"><circle cx="13.8" cy="13.8" r="13.8" fill="#7c6cf0" transform="translate(27.3 129.9)"/><circle cx="7.2" cy="7.2" r="7.2" fill="#8a90a8" fill-opacity=".3" transform="translate(60.8 10.2)"/><circle cx="7.2" cy="7.2" r="7.2" fill="#8a90a8" fill-opacity=".3" transform="translate(27.9 89.2)"/><path fill="#7c6cf0" d="M39.6 0A40 40 0 0 0 0 39.1v3.5a10 10 0 0 0 10.1 10 10 10 0 0 0 10.1-10v-2.2a19.2 19.2 0 1 1 29.5 16.1s-14.3 9.3-18.7 22a28 28 0 0 0-1.2 8c0 1 0 10.8.2 18.8a10.4 10.4 0 0 0 10.4 10.2A10.4 10.4 0 0 0 51 105V88.7c0-7.8 7.5-15.5 13.7-20.6a42 42 0 0 0 14.2-22.7 26 26 0 0 0 .8-5.7A39.7 39.7 0 0 0 39.6 0"/><path fill="#5a5f8c" d="M13 47.9A10 10 0 0 1 3 37.8v-3.4a39 39 0 0 1 4.6-18A39 39 0 0 0 0 39.2v3.4a10 10 0 0 0 10.1 10 10 10 0 0 0 9.7-7.3 10 10 0 0 1-6.7 2.6m27.2-26.6A19.2 19.2 0 0 1 56.9 48a19.2 19.2 0 1 0-32.1-20 19 19 0 0 1 15.5-6.7m3.1 89.4A10.4 10.4 0 0 1 33 100.5c-.2-8-.2-17.7-.2-18.8a28 28 0 0 1 1.1-8l1.7-3.8a33 33 0 0 0-4.7 8.6 28 28 0 0 0-1.1 8c0 1.1 0 10.9.2 18.8a10.4 10.4 0 0 0 10.4 10.2 10.4 10.4 0 0 0 10-7.5 10 10 0 0 1-7 2.7M38 154a13.8 13.8 0 0 1-5-21.3 13.8 13.8 0 1 0 18.6 19.8A14 14 0 0 1 38 154"/></g><path fill="#ed9da0" d="M188 478.9s20.5 42.6 6.9 44.3-17-38.4-17-38.4Zm755.3 290.9-15.8 10.4-47.6-55.8 23.2-15.3ZM764.4 805h-22.2l-8.4-52.5h30.6ZM639.7 344.1l-66.2-47.3a12.9 12.9 0 1 0-15.4 11.1c8.2 7 68.6 67 77.3 63.9s47.2-9 47.2-9l1-36.5Z"/><path fill="#3d4168" d="m695.5 418-10.2 89.2s15.5 132.7 21.1 155S726 767 726 767h42.7l-20-120.1 7.3-112.5L798 647l90.9 98 31.4-23L839 600.1l-28.5-112s3.6-58-28.3-80.4Z"/><path fill="#ed9da0" d="M717 254.2a34.9 34.9 0 1 1 28.8-9l7.8 24.8-33 4.3Z"/><path fill="#8a90a8" fill-opacity=".3" d="m691.7 431.5-1.7-.8c3.5-7 10.2-37.8 6.5-44.7-3.6-6.6-10-11.3-13.6-18a30 30 0 0 1-3-18l-14.3-18.8 45.8-47 2-2.1c.2-5.7-2.5-10 4.6-14a96 96 0 0 1 38.6-4.2c9.6 2.9 11.8 9.7 16.3 18.6a185 185 0 0 1 15.7 119.7c-1.7 8.2 8.9 11.9 2 16.7-4.7 3.4-24 9.5-29.6 10.2a377 377 0 0 1-47.2 3q-11 0-22.1-.6"/><path fill="#ed9da0" d="M807.5 377.1c-3.2-8.7-9-47.1-9-47.1l-36.5-1.1 17.8 44-48.6 68 .3.4a12.9 12.9 0 1 0 10.7 13.7 1 1 0 0 0 1.2-.2c5.4-6.8 67.3-68.9 64-77.7"/><path fill="#8a90a8" fill-opacity=".3" d="M811.2 352.9c-3.4-14.1-6.7-28.3-12.4-41.7s-13.7-26-25-35a29 29 0 0 0-12.3-6.4c-4.5-.9-9.7.2-12.8 3.5-5.2 5.4-3.6 14-1.7 21.2l16.5 63.5 48-5Z"/><path fill="#3d4168" d="M911 754.3s-6-4.1-8-2.8-19 27.7-19 27.7-23 20.8-5 21.8 65.3-27.1 65-32.7-14.8-21.6-14.8-21.6-8.7 14.8-18.1 7.6m-167.9 34.1s-2.1-6.4-4.6-6.2-29.4 16.2-29.4 16.2-30 7.9-14.5 17 70.5 5.5 72.7.3-2.9-25.7-2.9-25.7-16.2 9.2-21.3-1.6"/><path fill="#ed9da0" d="m110.4 752 16.7 31.5-27.8 8.1-5.9-28.5Z"/><path fill="#3d4168" d="m125.9 780 29.3 15s45.9 10.9 16 20-43.3 2.6-43.3 2.6-39.1 2-38.5-8.9 8.1-26.2 8.1-26.2 26.2 6.8 28.4-2.6M49.8 478.4l12.8 155s.4 92.5 14 110.4 14.2 27 14.2 27l28.1-14.6s-14.5-24.2-11.5-27.9a21 21 0 0 0 3.9-8l-7.7-95.5L118 458.4Z"/><path fill="#ed9da0" d="m84.8 752-12 31.5-34-12.8L60 748.5Z"/><path fill="#3d4168" d="m158.2 478.9 6.8 142.5s-33.3 94.7-62.3 110c0 0 0 18.9-6.8 22.3a17 17 0 0 0-8.5 10.2l-37.6-9.4 17-27.3 37.6-91.3s6-2.6 7.7-11.1 5.1-8.5-3.4-10.3-8.5-10.2-8.5-10.2L72 474.6Z"/><path fill="#ed9da0" d="M91.2 271c2.2-2.8 4.1-22.6 5.1-35.8a34.1 34.1 0 1 1 31.2 20H126c.3 9.8 1 19.3 1 19.3h-7.8c-11.3 0-30.5-.4-28.1-3.4"/><path fill="#3d4168" d="M70 767s11.3-7 12.7-4.2l7 14.7 6.4 17.5s38.8 24.5 5.6 25.9-41.6-17.5-41.6-17.5-37.4-16-31.7-25.9 25.4-20 25.4-20 9.8 17.2 16.2 9.5m39.6-530.8c2.7-1.2 5.7-1.3 8.5-2a22 22 0 0 0 15.8-23.3 12 12 0 0 1-.2-4c.5-3 3.7-4.8 6.7-5.3s6-.2 9-1.1a14 14 0 0 0 8.5-10.3 22 22 0 0 0-2.2-13.6l-1.2 3a11 11 0 0 1-3.2-5.5 7 7 0 0 0-5.7 4c-1.8 1-1.8-3.1-3.6-3.9a3 3 0 0 0-2.4.5c-3.9 1.5-8.2-.3-12.2-1.5a46 46 0 0 0-21.4-1.3 26 26 0 0 0-13.1 5.7 30 30 0 0 0-6.6 9.8 59 59 0 0 0-6.5 28.2 40 40 0 0 0 8.2 22c2.6 3.3 10.7 14.7 15.7 13.1 6.3-2-1.5-11.1 6-14.5"/><path fill="#8a90a8" fill-opacity=".3" d="M166.7 473.7a54 54 0 0 1-6.9-13.6l1 28.1s-96.5-8.5-114.4 0c0 0-.9-19.6-2.6-22.1-1.2-2-3.4-76.4-4.4-116.5a89 89 0 0 1 22.4-61.8 46 46 0 0 1 17-12.9s-1.7-16.2 6.9-17c0 0 32.4-3.5 44.3 6.8a88 88 0 0 0 12.2 8.7 25 25 0 0 1 10.7 12.9 25 25 0 0 1 3.4 9.5l12.1 86.6 17.1 69.1s8.5 7.7 5.1 12 4.3 22.2 4.3 22.2l-21.3 6.8s-2.6-18-6.9-18.8"/><path d="M109.1 327.4 160.7 467s-49.9-94.5-51.6-139.7" opacity=".1"/><path fill="#3d4168" d="M712.5 202.7a12.7 12.7 0 0 0 12.8 16.9h.2a21.5 21.5 0 0 1 .4 26.3 75 75 0 0 0 4.7 29.7s3.6 21.8 10 26.7S756 295 756 295s0 12.4 8.6 11.4 21.7 4.9 26-15.3-10.4-57.3-10.4-57.3l-8-31.8a42 42 0 0 0-51.2-30l-17.3 4.6a25 25 0 0 0-17.2 31.4z"/></svg>