<svg xmlns="http://www.w3.org/2000/svg" viewBox="0 0 537.6 508.9"><path fill="#3d4168" d="M0 480.1q0 1.1 1.2 1.2h535.3q1 0 1.1-1.2c.1-1.2-.5-1.2-1.1-1.2H1.2q-1.1.2-1.2 1.2M160.7 21.3l-4.2 10.5s-3.9 14.8.7 20.7 5.5 50.8.6 54.2c-4.8 3.3 61.9-30.9 61.9-30.9s-26-60.4-26.5-60.6l-17.5-5.5z"/><path fill="#f3a3a6" d="m204.2 73.4-22.4 7.3V48.5h20.3zM135.8 256c-1.2 7.4-6.1 12.7-11 11.9-4.8-.9-7.8-7.6-6.6-15a18 18 0 0 1 3.4-8l5.6-31.3 15 3.2-7 30.4q1.4 4.4.6 8.9m39 177.5h20.9v29.7h-20.9z"/><path fill="#3d4168" d="M154.4 481.3q-3.3 0-5.6-.2a26 26 0 0 1-13.6-7 4 4 0 0 1-1-4.3q.8-1.6 2.5-2.1l14.7-4.2 23.8-16 .3.4c.1.2 2.4 4.4 3.2 7.2q.4 1.7-.2 2.7-.6.7-1.1 1c.4.4 1.8 1.3 6 2 6 1 7.3-5.4 7.3-5.6v-.2l.3-.2q4.3-2.8 5.2-2.5c.4.1 1 .3 2.8 17.4.2.6 1.4 4.5.5 8.3-.8 4-18.8 2.7-22.4 2.4 0 0-13.5 1-22.7 1Z"/><path fill="#f3a3a6" d="m237.6 421.4 17.8-11 15.7 25.1-17.8 11z"/><path fill="#3d4168" d="M231.8 477.3q-3.8 0-6.4-.6a4 4 0 0 1-3-3.1q-.3-1.8.9-3.2l10.2-11.3 11.7-26.2.5.2c.2.1 4.4 2.4 6.6 4.4q1.2 1.2 1.2 2.5 0 .8-.4 1.3c.6.2 2.2.2 6-1.4 5.7-2.4 3.5-8.4 3.4-8.7v-.4q2.2-4.6 3.1-4.9c.4-.1 1-.3 11.6 13.4.4.3 3.5 3 4.8 6.7 1.4 4-14.5 12.2-17.7 13.8-.1.1-16.8 12.2-23.7 15.7a20 20 0 0 1-8.8 1.8m-20.6-292.1h-58.7l-5.3 54.5 23.3 201.6h30l-12-116.4 48.5 105 26.6-18.6-37.9-98s13.5-85.5 2.9-106.8-17.4-21.3-17.4-21.3"/><path fill="#7c6cf0" d="M240.3 188.5H138.6l36.6-120.4h40.5z"/><path fill="#7c6cf0" d="M181.6 68.2s-25.3-.7-28 6C151 80.7 119.7 239 119.7 239h20.6z"/><circle cx="184.6" cy="35.1" r="22.3" fill="#f3a3a6"/><path fill="#3d4168" d="M188.9.5s26.8-6.8 35 28.9c0 0 .2 9.3 4.9 13s3.1 23.3 3.1 23.3 8.9 14.6 1.3 21.3c0 0-3.3 13.5 1.6 21.3s23.3 50.4-7.3 53c0 0-15.6-9.4-8.2-37.3s-1-43.3-1-43.3S195 72 196.3 54s-15-36.2-16.2-36-12.6-6.4-17.7 14l-5.5-1s-2.3-34.2 32-30.5"/><path fill="#f3a3a6" d="M257.7 252.5c1.5 7.3-1.2 14-6 15-5 .9-10-4.3-11.5-11.7q-1-4.4.3-8.8l-6-31 15.3-2.5 4.2 31q2.8 3.5 3.7 8"/><path fill="#7c6cf0" d="M198 68.3s22.3-2.8 25 3.8 33.8 165 33.8 165h-20.6z"/><path fill="#f3a3a6" d="M258.6 234c-5.4 5.1-7 12.2-3.6 15.7 3.5 3.5 10.6 2.2 16-3a18 18 0 0 0 4.9-7.4l22.6-22.2-11.2-10.6-21 23q-4.5 1.3-7.7 4.5"/><path fill="#7c6cf0" d="M267.4 223.6 309 170l22-57.4a21.5 21.5 0 0 1 32.6-10c9 6.2 11.8 18.3 6.7 28l-33.9 63v.2l-58 43.8z"/><path fill="#f3a3a6" d="m365.1 106.5-26 8.5V77.6h23.6z"/><circle cx="342.3" cy="62" r="25.9" fill="#f3a3a6"/><path fill="#3d4168" d="m349 64-3.6 4.4-6.5-11.3s-8.2.4-8.2-5.7S323 45 323 45s-10.7-18.7 11.5-13.8c0 0 15.4-10.5 23-1.5 0 0 23.5 11.8 16.8 32.4l-11.2 21.2-2.5-4.8s1.5-20.2-11.8-14.5"/><path fill="#f3a3a6" d="M351.3 461.2h20.9v29.7h-20.9z"/><path fill="#3d4168" d="M331 509q-3.4 0-5.7-.3a26 26 0 0 1-13.5-7 4 4 0 0 1-1-4.3q.7-1.6 2.5-2.1l14.6-4.2 23.9-16.1.2.5c.1.2 2.5 4.4 3.2 7.2q.5 1.6-.2 2.7-.5.7-1 .9c.3.5 1.7 1.4 5.8 2 6.1 1 7.4-5.3 7.4-5.6v-.2h.3q4.3-3 5.2-2.6c.4 0 1 .3 2.8 17.4.2.6 1.4 4.5.6 8.3-1 4-18.9 2.7-22.4 2.3-.1 0-13.6 1-22.8 1"/><path fill="#f3a3a6" d="m400.5 430 16.2-13.3 18.9 22.9-16.1 13.3z"/><path fill="#3d4168" d="m415.2 479.7-4.5 3.5a26 26 0 0 1-14.9 3.2q-2.6-.2-3.4-2.7-.6-1.7.5-3.2l8.6-12.6 8.1-27.6.5.2c.2.1 4.7 1.9 7.1 3.5q1.4 1 1.5 2.3.1.8-.2 1.4c.6 0 2.2-.1 5.8-2.2 5.3-3.2 2.3-8.8 2.2-9l-.1-.3v-.2q1.6-4.8 2.5-5.3c.4-.1 1-.4 13.2 11.7.5.3 4 2.6 5.7 6 2 3.7-12.8 14-15.7 16.1-.1 0-9.8 9.4-17 15.2m-98.4-247.6h71.8l-16 237.4h-23.9z"/><path fill="#3d4168" d="m331.3 245.2-14.6-13.1 7.3 130.6 81.8 77.8 20.4-16.8-47.6-61.9z"/><path fill="#7c6cf0" d="m331.3 92.4 35.5-5.7 11 19.2c14 24.5 19.7 52.9 16.3 80.9l-5.6 45.3h-71.8z"/><path fill="#f3a3a6" d="M258.9 243.3c-6 4.5-8.4 11.4-5.4 15.3s10.3 3.4 16.3-1.1a18 18 0 0 0 5.6-6.9l25-19.4-9.8-11.9-23.6 20.5q-4.6.8-8.2 3.5"/><path fill="#7c6cf0" d="m268.8 234 47.6-48.3 28.5-54.5a21.5 21.5 0 0 1 33.5-6.2 22 22 0 0 1 3.4 28.6L341 212.4h-.1l-62.6 37z"/></svg>