<svg xmlns="http://www.w3.org/2000/svg" viewBox="0 0 800.3 594.5"><defs><linearGradient id="a" x1="-145.6" x2="-145.6" y1="1" gradientUnits="objectBoundingBox"><stop offset="0" stop-color="gray" stop-opacity=".3"/><stop offset=".5" stop-color="gray" stop-opacity=".1"/><stop offset="1" stop-color="gray" stop-opacity=".1"/></linearGradient></defs><g transform="translate(-575 -229)"><g transform="translate(860.7 284)"><path fill="#ed9da0" d="M27.4 34.8H13l-1.6 16.4h16.1Z"/><circle cx="15.3" cy="15.3" r="15.3" fill="#ed9da0" transform="rotate(-176 19 19.7)"/><path fill="#3d4168" d="M17.3 1.6a1 1 0 0 0-.8-.5c7 0 14.4 1.4 20 5.6a31 31 0 0 0 4 3 .5.5 0 0 1 .1.9h-.2a.5.5 0 0 0 .1 1 .5.5 0 0 1 0 .8l-1.3.7a.5.5 0 0 0 0 .8l.3.2a.5.5 0 0 1 .1.8 5 5 0 0 0-1.4 1.7 12 12 0 0 0-.8 3.5c-.3-1.7-2.2-2.9-4-3.1a18 18 0 0 0-5.3.5 29 29 0 0 1-11.6-.3c1.1 2.7-.2 5.7-1.5 8.4l-3.5-1.8c-4.8-3.2-2.1 8.9-.4 10.6-3.9 1-12.7-14.1-9.2-19.4 1.9-2.8 1-6.5 4.4-9 1.7-1.6 4.8-.6 6.6-2 .6-.4-.2-2 .7-2.2z"/></g><path fill="#5a5f8c" d="m892 327 3.5 5.6 21.3 7.7-1.8 53-1.9 5.6 1.6 4.7-2.7 3.7q4.5 3.8 2.3 8.3l-9.4 2.9s-52.6 8.4-48.7-.1c4.2-9.3 3.6-35.9-8.1-49.3-10-11.4-4.1-27.4-4.1-27.4l21.2-8 7.7-5.3Z"/><path fill="#ed9da0" d="M795.8 373.8a7 7 0 0 0 10.7 1l22.3 10.8-1.7-12.8-21-8.3a7 7 0 0 0-10.3 9.3"/><path fill="#5a5f8c" d="M862.3 335.4c-1.9 12.6-7 42.2-14 48.8l-1.5 1c-25.2 8.1-34.5-7.3-34.5-7.3s6.6-3.8 6.3-10.4l14.2 3.4 10.2-28 1.6-1.9Z"/><path fill="#7c6cf0" d="M914.6 598c5.8.8 11.7 1.3 17.2-.5.9-.3 1.8-.9 1.7-1.7l-.4-.9a53 53 0 0 1-5.2-9.9l-.3-.4h-.5c-2.6.6-4.7 2.3-7.3 3a10 10 0 0 1-3.9.3c-1.1-.2-2.7-1.1-3.7-1 .6 3.8 2 7.3 2.4 11.2m108.4-9.6a30 30 0 0 0 9.9-9.3l.2-.8-.3-.8a32 32 0 0 0-8-8.7 24 24 0 0 0-4.5 4.2c-1 1-3.6 2.6-3.6 4 0 1 1 2 1.4 2.7a56 56 0 0 1 4.9 8.7"/><path fill="#514e7f" d="M937 609.6a4 4 0 0 1-.6 2.5 3 3 0 0 1-1.5 1c-8 2.8-17.2-.8-25.2 2l-4.9 2a26 26 0 0 1-6 1q-4.2.4-8.5.6a20 20 0 0 1-6.4-.6 8 8 0 0 1-5-3.9 4 4 0 0 1-.2-2.7l.5-1 2-1.4 2.9-2a20 20 0 0 1 4.4-2.3l3.6-.9c4.2-1.2 7.3-4.5 10.3-7.6l4-4.3a4 4 0 0 1 1.4-1.1l1.7-.2a23 23 0 0 1 11 3.7l2.6 1.6c2.4.9 5.4.2 7.5-1 1-.5.8-.8 1.3-1.8s1.5-1.6 2.4-.7l.6 1c.8 3 .5 6 .5 9l.2 1.4.7 1.2.2.4a9 9 0 0 1 .6 4.1"/><path fill="#464353" d="M937 609.6a4 4 0 0 1-.6 2.5 3 3 0 0 1-1.5 1c-8 2.8-17.2-.8-25.2 2l-4.9 2a26 26 0 0 1-6 1q-4.2.4-8.5.6a20 20 0 0 1-6.4-.6 8 8 0 0 1-5-3.9 4 4 0 0 1-.2-2.7l.5-1c.5 1 .8 2.4 1.1 2.8a6 6 0 0 0 3.8 2.7 9 9 0 0 0 3.4-.4c7.3-1.8 15-1.8 22-4.6 2.4-.9 4.7-2.2 7.2-2.7s5.2-.4 7.7-.7c4.1-.3 8.1-1.5 12.1-2.2a9 9 0 0 1 .6 4.2"/><path fill="#514e7f" d="M1041.3 588c-.4 3-2.3 5.6-4.4 7.9s-4.5 4.2-6.2 6.7c-2.1 3.2-3 7.1-5.7 9.8a16 16 0 0 1-3.5 2.5 24 24 0 0 1-4.4 2c-4 1.3-8.4 1-12.6.7a11 11 0 0 1-4-.8l-1.6-1a8 8 0 0 1-2.6-2.6 3 3 0 0 1-.3-1.9 4 4 0 0 1 1.2-1.8l3-2.7a18 18 0 0 0 4-3.5 11 11 0 0 0 1.5-3.4 31 31 0 0 0 1.2-6.6 21 21 0 0 1 .4-4.5c.7-2.3 2.3-4.3 2.2-6.6v-1l.8-.6a14 14 0 0 1 4.2-1 5 5 0 0 1 3.8 1.6c.6.7 1 1.7 1.8 2h1.4c2-.2 4.3-.4 6-1.8a8 8 0 0 0 2.5-5.5c0-.8-.3-1.6.9-1.7.9-.2 1.6.8 2 1.4 1.8 2.3 3.5 4.6 4.1 7.4l.8-.2a3 3 0 0 1 2.7 1.4 6 6 0 0 1 .8 3.8"/><path fill="#464353" d="M1041.3 588c-.4 3-2.3 5.6-4.4 7.9s-4.5 4.2-6.2 6.7c-2.1 3.2-3 7.1-5.7 9.8a16 16 0 0 1-3.5 2.5 24 24 0 0 1-4.4 2c-4 1.3-8.4 1-12.6.7a11 11 0 0 1-4-.8l-1.6-1a8 8 0 0 1-2.6-2.6 6 6 0 0 1 2.6-.6c1.8.1 3.2 1.9 5 2.4 2.5.8 5-1 7.6-1.6 1.7-.4 3.5-.3 5.2-.9a13 13 0 0 0 3.8-2.3 19 19 0 0 0 4-3.9 25 25 0 0 0 2.4-4.7 68 68 0 0 1 4.8-9.2l1-1.3 1.3-1c1.7-1.3 2.4-3.4 3-5.5l.7-1.9a3 3 0 0 1 2.8 1.4 6 6 0 0 1 .8 3.9M900.5 449.7c1.1 4.3-.5 8.9-1.9 13.2a102 102 0 0 0-4.1 19.8 17 17 0 0 1-1 5l-2.5 4c-2 3.6-2 8-1.6 12.1q.5 4.2 1.3 8.1c.7 3.3 1.5 6.7.5 10 1.7-.4 2.7 1.7 2.6 3.3s-.6 3.5.2 4.9c2 .7 2 3.4 2 5.5a47 47 0 0 0 1.3 11q4.5 21.6 9.6 43.2c7.3 2.2 15.8 4.6 22.8 1.4a5 5 0 0 0 2.9-2.9 5 5 0 0 0-.3-2.2l-3.3-12c-.8-2.9-1.6-5.9-1.2-8.9.3-2.2 1.3-4.6.2-6.5l-1.4-1.9c-1.7-2.5-.8-5.9-.7-9l-.1-2-1-2.3a35 35 0 0 1-3.8-17.1 4 4 0 0 0-.3-2.3l-.6-.9a3 3 0 0 1 .2-1.6 15 15 0 0 1-2.6-2.6 3.7 3.7 0 0 0 .6-5.9 2 2 0 0 0 1-3.3q-.8-.3-1.4-.9c-.4-.6 0-1.5.3-2.2l2-3.6c1.6-2.7 1.9-6 3.5-8.6a65 65 0 0 0 5.3-12.2l5.8-16 4 3.4a12 12 0 0 1 3.2 3.6 16 16 0 0 1 1 4.4c1.4 8.7 7 16.3 9 24.8.4 2 .7 4 1.8 5.6l1 1.6a8 8 0 0 1 .5 2.6 12 12 0 0 0 5.2 8.8c2 1.4 4.3 2.3 5.3 4.4l1 1.8c.8 1.1 2.9 1.2 3.3 2.7.2.7-.2 1.7.2 2.4l1 .7 5.6 2.8c6.3 3.1 9.5 10.4 14.1 15.6a34 34 0 0 1 4.3 5.6c2 3.6 2.9 8.1 6.3 10.4a10 10 0 0 1 2.4 1.8c1 1.4.7 3.4.8 5.1s1.4 3.9 3.1 3.4a12 12 0 0 0 0 6.5 33 33 0 0 0 20-8c1.6-1.5 3.2-3.4 3.2-5.5l-.3-1.1a3 3 0 0 0-1.2-1c-5.3-2.8-6.9-9.4-9.5-14.8-2.4-4.7-5.8-8.8-8.7-13.2-6.2-9.5-10.5-21-20-27.2-2-1.3-4.5-2.5-5.5-4.8q-.7-2-1.1-4-.7-2.8-3-2.6c.8-2 .7-4.3.7-6.3a8 8 0 0 0-.3-2.7l-1.4-2.7a26 26 0 0 1-3.6-13.8c.1-2.5.6-5-.2-7.5l-1.5-3.4a22 22 0 0 1-1-6.5l-.6-8.3a41 41 0 0 0-1-8.2c-1.8-6.5-3.5-33.5-9.4-36.5s-16.1 17.7-22.8 18.1a30 30 0 0 0-8.6 1.7 42 42 0 0 0-11.8 7.8L908.1 444c-2.6 2-4.8 4.1-7.6 5.6"/><path fill="#33323d" d="M1093.7 472.3v-10.8a30 30 0 0 0-29.8-29.8H640.2a30 30 0 0 0-29.8 29.8v19.8Z"/><path fill="#8dd070" d="M758 419.2s-1.1 75 12.2 99.7 19 132 19 132 139.4 14.5 236.6-17.2 304-44.7 304-44.7L1295 354.2s-172.2-11-270.1 35.6S758 419.2 758 419.2"/><path fill="#8a90a8" fill-opacity=".3" d="M758 419.2s-1.1 75 12.2 99.7 19 132 19 132 139.4 14.5 236.6-17.2 304-44.7 304-44.7L1295 354.2s-172.2-11-270.1 35.6S758 419.2 758 419.2"/><path fill="#8a90a8" fill-opacity=".3" d="M789 446.6s-4.4 61.9 6.5 81.7 11.5 108 11.5 108 125.5 5.9 214.8-24.5 276.9-50 276.9-50l-21.3-192.2s-155.3-1.6-245.9 41.2S789 446.6 789 446.6"/><ellipse cx="32.6" cy="69.9" opacity=".1" rx="32.6" ry="69.9" transform="rotate(-7.1 4052.2 -7681.5)"/><path fill="#8dd070" d="M707 455.6s21.9 71.8 42.1 91.2 58.6 120 58.6 120 137.2-29.1 220-89.2 275.6-135.8 275.6-135.8L1198 229s-167.3 42.3-246.2 116.8S707 455.6 707 455.6"/><path fill="#8a90a8" fill-opacity=".3" d="M707 455.6s21.9 71.8 42.1 91.2 58.6 120 58.6 120 137.2-29.1 220-89.2 275.6-135.8 275.6-135.8L1198 229s-167.3 42.3-246.2 116.8S707 455.6 707 455.6"/><path fill="#8a90a8" fill-opacity=".3" d="M744.8 472.2s14.8 60.3 31.3 75.8 44 99.3 44 99.3 121.3-33 197-89.3 248.2-132.6 248.2-132.6L1186 249.1s-148.2 46.1-221.3 114.6-220 108.5-220 108.5"/><ellipse cx="32.6" cy="69.9" fill="#8a90a8" fill-opacity=".3" rx="32.6" ry="69.9" transform="rotate(-25 1386.6 -1885.9)"/><path fill="#7c6cf0" d="M1105.2 486.6v298a26 26 0 0 1-25.8 25.8H636.2a26 26 0 0 1-25.8-25.8v-328c12.7 4.6 12.7 4.6 25.8 4.2h443.2a26 26 0 0 1 25.8 25.8"/><path fill="#33323d" d="M1105.2 594.2v95.3h-92.5a47.7 47.7 0 1 1 0-95.3Z"/><circle cx="18.6" cy="18.6" r="18.6" fill="#7c6cf0" transform="translate(999.8 623.3)"/><path fill="#ed9da0" d="M925 446.6a7 7 0 0 0-1.4-10.6l5.5-24.3-12 4.6-3.5 22.3a7 7 0 0 0 11.5 8"/><path fill="#5a5f8c" d="m911 339.4 5.7 1s26.8 44.1 21.8 53.3-10 38.5-10 38.5-10.5-1.3-14.8-6.3l4.8-34.8-9.4-28.3Z"/><path fill="#8a90a8" fill-opacity=".3" d="M1372.7 812.5H577.5q-2.3-.1-2.5-1c-.2-1 1.1-1.1 2.5-1.1h795.2c1.4 0 2.6.5 2.6 1s-1.2 1.1-2.6 1.1"/><g transform="translate(1203 543.3)"><path fill="url(#a)" d="m278.3 794-1.8-4.2-.2-.5v1l.2 1.7-.2 1.5h.4z" transform="translate(-200.7 -529.6)"/><path fill="#ed9da0" d="M67.2 49.6c0 2.2-.9 4.5-1 6.7 6.7.4 13.4-2.9 20-1.9-1.8-1.2-2.8-3.4-3.4-5.5a23 23 0 0 1-.7-8.5l.1-.5c.3-1 1-2.7.7-3.5-.2-1.2-1.3-1-2.3-.9a87 87 0 0 0-9 1.2c-.7.1-8.3 2-8.4 1.8a36 36 0 0 1 3.3 6.7 13 13 0 0 1 .7 4.4M.6 42.5a10 10 0 0 0 2 2l1.7 1.3a7 7 0 0 0 3.3 1.4c1.6 0 5-.9 6-2.2a4 4 0 0 0 .6-2.3 11 11 0 0 0-.5-3.2 18 18 0 0 0-2.6-4.7 14 14 0 0 0-4.2-4.2c-.6-.3-3 1.5-2.3 3.1a2.4 2.4 0 0 0-2.2 1.7l-.3.7c-.3.3-.7.1-1 .3-.6.3-.4 1.1-.4 1.7L0 39.7a3 3 0 0 0 .5 2.8m92.9 229a2 2 0 0 0-2.1-.3 77 77 0 0 1-11.7 1c-.5-2.4.9-4.8 1.4-7.2l.4-1.8a4 4 0 0 1 3-1.8c2.1-.4 5.4-1.2 6.6 1 1.4 2.5 1.9 6.3 2.4 9.1"/><path fill="#3d4168" d="M50.4 262.4a12 12 0 0 0 5.5 1.7 18 18 0 0 1 5.6 1.3c1.5.7 2.8 2 4.3 2.5a9 9 0 0 0 4.6 0c1.7-.3 3.6-1 4.6-2.5.9-1.3.8-3 .6-4.7l-.4-5.4-.3-1.4c-1.3-1.8-4.4.8-6.1.8a12 12 0 0 1-7.4-3.2l-.6-.4c-.8-.4-1.5.3-2.2.8l-.2.2c-1.6 1.2-3.7 1.5-5.6 2s-4 1.5-4.5 3.4l-.1.3a5 5 0 0 0 2.2 4.6"/><path fill="#3d4168" d="M92.6 143.9a24 24 0 0 1-3.2 17.6l-2.7 4.3-1 3.4-3 12.3c-.8 3.3-1.6 6.6-1.4 10 .2 2.4.8 5-.7 6.9l-.8 1.2a3 3 0 0 0 0 1.6 58 58 0 0 1-.2 26.8c-2.4 7.8-2.5 16.4-4.6 24.3a5 5 0 0 1-1.3 2.7 4 4 0 0 1-2 1c-3 .6-6.3-.2-9.1-1.5-2-1-4.2-2.6-4-4.8a10 10 0 0 1 1-3 21 21 0 0 0 1.2-6c.5-5.2 2.1-10.2 3.3-15.2s2-10.4 1-15.5a135 135 0 0 0-9.9-30.5l-.9-1.4-1.3-.8-.6-1.6c-.4-1.6-1.8-2.8-2.6-4.3-2.3-3.5-1.6-8.1-1.5-12.3 0-4.1-.5-8.3.2-12.3s3-8.2 6.9-9.5a15 15 0 0 1 6-.3c10.8 1 21.2 3 31.2 6.9"/><path fill="#3d4168" d="M49 169.6a26 26 0 0 0 .5 4.8q2.8 15.9 6 31.7l.7 2.8a22 22 0 0 0 4 8c9 11.1 9.7 27.3 14.6 40.7l1 2.7 3 6.6.6.8 1 .2a28 28 0 0 0 12.5-2.8 3 3 0 0 0 1.3-1.2l.2-1.2a18 18 0 0 0-1.6-7.8 17 17 0 0 0-3-3.7 142 142 0 0 0-3.1-24.9c-1-4.1-2.1-8.3-4.5-11.8-1.8-2.6-4.4-5.2-4-8.3 0-1.4.7-3.1-.5-4-.5-.3-1.2-.3-1.5-.9l-.2-.7a19 19 0 0 1 .4-6.5l1-4.2a5 5 0 0 0-1.1-4v-8.7a16 16 0 0 1 .3-4.8q.5-1.1.7-2.3c.6-2.7-.9-6 1-8.2a12 12 0 0 1 2.8-2 11 11 0 0 0 3.9-5.6 31 31 0 0 0 1.1-7V146l-.2-.8c-.5-1.2-2-1.7-3.3-2a109 109 0 0 0-25.7-3c-3.2-2.2-5-1.4-6.3.9a24 24 0 0 0-1.8 4.4c-.7 1.9-.7 12.3-1.3 14.2-.8 2.5 1.5 7.5 1.4 10"/><circle cx="15.5" cy="15.5" r="15.5" fill="#ed9da0" transform="translate(54.7 14.2)"/><path fill="#7c6cf0" d="M61.2 55.1c.6.8 1.5 1.7 2.5 1.4l1-.5c1.8-1.2 4-1.4 6.2-1.8a90 90 0 0 0 12.5-2.8 13 13 0 0 1 3.7-.7c2.6 0 5 1.7 6.6 3.8s2.8 4.4 4.5 6.5l3.6 4.3c2.7 4-8.3 50-8.2 50.8 1 7.3 1.6 27.8 1.1 31.5a58 58 0 0 0-15.1-3.6c-3.3-.3-6.7-.3-10-1.3l-6-2a28 28 0 0 0-5-.5 60 60 0 0 0-11.1.3q-.5 0-.8-.2l-.2-.4a7 7 0 0 1 1-4 5 5 0 0 0 1-2.6c0-.4 1-58.5 2.4-61a32 32 0 0 0 3.9-9l.7-6.5a3 3 0 0 1 .5-1.5 3 3 0 0 1 2.3-.7 10 10 0 0 1 2.9.5"/><path fill="#7c6cf0" d="M56 79.4a11 11 0 0 1-3.3 3 11 11 0 0 1-5.1.9 122 122 0 0 1-21.3-2.4 49 49 0 0 1-11.2-7.7c-2-2.7-7.3-20-7.5-21a8 8 0 0 0-2.5-4.5l-.5-.7.1-.8a6 6 0 0 1 4-3A17 17 0 0 1 14 43l1.7.4c1.3 3.7 11 21 11.5 21 1.3.1 4.3.6 5.5 0 1.4-.7 6-.7 6.3-.8.6-.3 5.6-2.5 6.3-2.5-.4-.3 9.1-2.7 9.8-3.9q.2-.7.6-1.2h1l2.5.7c1.4 5.3.7 10.8-.4 16a14 14 0 0 1-2.8 6.7m7.8-28.2a16 16 0 0 1 5.5-1.8 12 12 0 0 1 3.6-.3l3.2.7a14 14 0 0 0 4.5-1q2.4-.8 4.5.4l1 .5 1-.5a6 6 0 0 1 7.1.4c2.9 2.6 2.6 7.8 5.9 9.9 1 .5 2 .8 2.6 1.8l.5.8.8.6 2.7 1.6a4 4 0 0 1 1.6 2.6 5 5 0 0 1-.5 2.3 21 21 0 0 1-20.3 13 3 3 0 0 1-2.2-.7l-.7-1.2C83 77 80 74.6 78.2 71.4c-1.1-1.8-1.8-4-3-5.8a28 28 0 0 0-7-6.8c-1.5-1.1-3.2-2.3-5-2.2s-2.9.1-2.3-1.9a7 7 0 0 1 2.9-3.5"/><path d="M63.8 51.2a16 16 0 0 1 5.5-1.8 12 12 0 0 1 3.6-.3l3.2.7a14 14 0 0 0 4.5-1q2.4-.8 4.5.4l1 .5 1-.5a6 6 0 0 1 7.1.4c2.9 2.6 2.6 7.8 5.9 9.9 1 .5 2 .8 2.6 1.8l.5.8.8.6 2.7 1.6a4 4 0 0 1 1.6 2.6 5 5 0 0 1-.5 2.3 21 21 0 0 1-20.3 13 3 3 0 0 1-2.2-.7l-.7-1.2C83 77 80 74.6 78.2 71.4c-1.1-1.8-1.8-4-3-5.8a28 28 0 0 0-7-6.8c-1.5-1.1-3.2-2.3-5-2.2s-2.9.1-2.3-1.9a7 7 0 0 1 2.9-3.5" opacity=".1"/><path fill="#3d4168" d="M55.7 276.4a9 9 0 0 0 4.2 1.8 75 75 0 0 0 10.4 1.3l3.3.3q5 .4 10 .5a69 69 0 0 0 12.2-1A1 1 0 0 0 97 278c-.1-4.1-2.9-7.4-3.8-11.4-.4-1.7-1.1 1.2-1.2 1.3a3 3 0 0 1-2.7 1.5c-3.4.1-7.3-2-10-3.8l-1.8-1.1-1.5-.5a9 9 0 0 0-5.1 1c-2 1-3.8 2.5-5.9 3.6a17 17 0 0 1-5.2 1.6c-1.9.3-4 .4-5 2a3.5 3.5 0 0 0 .9 4.2"/><path d="m87.8 31.9-1 .4a4 4 0 0 1-3-.5Z" opacity=".1"/><path fill="#3d4168" d="M57.4 10.2a11 11 0 0 1 6.6-.8c2.2.3 4.4 1 6.5.3 2.4-.8 4.2-3.3 6.7-3.1a6 6 0 0 1 2.9 1.3 20 20 0 0 1 7 9.5 8 8 0 0 0 1.3 2.9l1.3 1.2a4 4 0 0 1 .6 2 16 16 0 0 1-2.8 11c-1.4 2-3 3.5-4.5 5.4s-5.6 4.9-5.9 3.7a14 14 0 0 1-.7-3.8c.1-2.5 1.6-4.6.4-6.8-.8-1.3-2.5-2.7-3.7-1.7q-.6.6-1.1 1.4a2.2 2.2 0 0 1-3.1-.5A5 5 0 0 1 68 29c.4-5.4-1-9.3-7-9.1-2.1 0-4.6-.3-6-2.3-1.8-2.6 0-5.9 2.4-7.3"/></g></g></svg>