<svg xmlns="http://www.w3.org/2000/svg" width="1200" height="630" viewBox="0 0 1200 630" role="img" aria-label="TalkLive — Free Random Voice Chat">
  <defs>
    <radialGradient id="bg" cx="50%" cy="0%" r="90%">
      <stop offset="0" stop-color="#1c2240"/>
      <stop offset="55%" stop-color="#0b0f1a"/>
      <stop offset="100%" stop-color="#070a12"/>
    </radialGradient>
    <linearGradient id="brand" x1="0" y1="0" x2="1" y2="1">
      <stop offset="0" stop-color="#6c5ce7"/>
      <stop offset="1" stop-color="#00d4ff"/>
    </linearGradient>
  </defs>
  <rect width="1200" height="630" fill="url(#bg)"/>
  <g transform="translate(96,150)">
    <rect width="104" height="104" rx="26" fill="url(#brand)"/>
    <g fill="none" stroke="#ffffff" stroke-width="7" stroke-linecap="round">
      <line x1="30" y1="42" x2="30" y2="62"/>
      <line x1="45" y1="30" x2="45" y2="74"/>
      <line x1="60" y1="38" x2="60" y2="66"/>
      <line x1="75" y1="46" x2="75" y2="58"/>
    </g>
  </g>
  <text x="228" y="230" font-family="Segoe UI, Roboto, Helvetica, Arial, sans-serif" font-size="74" font-weight="800" fill="#f2f4ff">TalkLive</text>
  <text x="98" y="360" font-family="Segoe UI, Roboto, Helvetica, Arial, sans-serif" font-size="64" font-weight="800" fill="#f2f4ff">Free Random Voice Chat</text>
  <text x="98" y="432" font-family="Segoe UI, Roboto, Helvetica, Arial, sans-serif" font-size="38" font-weight="500" fill="#8a90a8">Talk to strangers worldwide — anonymous, instant, no sign-up.</text>
  <g transform="translate(98,486)">
    <rect width="360" height="70" rx="35" fill="url(#brand)"/>
    <text x="180" y="46" text-anchor="middle" font-family="Segoe UI, Roboto, Helvetica, Arial, sans-serif" font-size="30" font-weight="700" fill="#ffffff">Tap to Talk →</text>
  </g>
  <g transform="translate(498,502)" font-family="Segoe UI, Roboto, Helvetica, Arial, sans-serif" font-size="26" fill="#8a90a8">
    <circle cx="10" cy="30" r="7" fill="#2ec26a"/>
    <text x="28" y="38">talklive.ai</text>
  </g>
  <g opacity="0.5" fill="none" stroke="url(#brand)" stroke-width="4" stroke-linecap="round">
    <line x1="900" y1="315" x2="900" y2="315"/>
  </g>
  <g transform="translate(760,120)" fill="none" stroke="url(#brand)" stroke-width="8" stroke-linecap="round" opacity="0.9">
    <line x1="0" y1="200" x2="0" y2="220"/>
    <line x1="30" y1="170" x2="30" y2="250"/>
    <line x1="60" y1="140" x2="60" y2="280"/>
    <line x1="90" y1="180" x2="90" y2="240"/>
    <line x1="120" y1="110" x2="120" y2="310"/>
    <line x1="150" y1="160" x2="150" y2="260"/>
    <line x1="180" y1="80" x2="180" y2="340"/>
    <line x1="210" y1="150" x2="210" y2="270"/>
    <line x1="240" y1="120" x2="240" y2="300"/>
    <line x1="270" y1="170" x2="270" y2="250"/>
    <line x1="300" y1="190" x2="300" y2="230"/>
  </g>
</svg>
